<svg xmlns="http://www.w3.org/2000/svg" xmlns:xlink="http://www.w3.org/1999/xlink" viewBox="0 0 402.87 111.51"><defs><style>.cls-1{isolation:isolate;}.cls-2{fill:#0d121b;}.cls-3{fill:#873dff;}.cls-4,.cls-5{mix-blend-mode:multiply;opacity:0.7;}.cls-4{fill:url(#linear-gradient);}.cls-5{fill:url(#linear-gradient-2);}</style><linearGradient id="linear-gradient" x1="92.87" y1="23.35" x2="161.7" y2="23.35" gradientUnits="userSpaceOnUse"><stop offset="0.08" stop-color="#0d121b"/><stop offset="0.79" stop-color="#fff"/></linearGradient><linearGradient id="linear-gradient-2" x1="17.7" y1="84.24" x2="86.53" y2="84.24" gradientUnits="userSpaceOnUse"><stop offset="0.19" stop-color="#fff"/><stop offset="1" stop-color="#0d121b"/></linearGradient></defs><g class="cls-1"><g id="Layer_2" data-name="Layer 2"><g id="Pixel_layer_Image" data-name="Pixel layer Image"><path class="cls-2" d="M202.77,48.19h4.62V73.27h-4.62L182,54l.11,3.76V73.27h-4.62V48.19h4.62l20.74,19.28-.07-3.87Z"/><path class="cls-2" d="M221.25,71.38l1.26-4.13A47.28,47.28,0,0,0,237,69.51c2.37,0,9.32-.28,9.32-3.62,0-2.25-3.16-2.43-9.25-2.76-7.2-.39-14.94-.82-14.94-7.52s7.81-8,13.9-8a63.85,63.85,0,0,1,13,1.51l-1,4.23A58,58,0,0,0,235.3,52c-1.79,0-8.46.18-8.46,3.41,0,2.9,5.13,3.12,10.47,3.33,7.06.29,13.72,1,13.72,7,0,6.81-8.53,8.13-14.83,8.13A47.58,47.58,0,0,1,221.25,71.38Z"/><path class="cls-2" d="M264.87,48.19h4.62V73.27h-4.62Z"/><path class="cls-2" d="M300.42,62.88V58.55h17.09v2.94c0,9.24-7.74,12.32-17.09,12.32-11.29,0-17-5.62-17-13.08s5.45-13.08,18.49-13.08a41.38,41.38,0,0,1,12.75,2l-1.07,4.09A40.54,40.54,0,0,0,301.89,52c-10,0-13.8,3.66-13.8,8.78s4.12,8.75,12.33,8.75c7.81,0,12.47-2.58,12.47-6.45v-.15Z"/><path class="cls-2" d="M356.48,73.27V62.52H336.35V73.27h-4.63V48.19h4.63v10h20.13v-10h4.63V73.27Z"/><path class="cls-2" d="M390.65,52.49V73.27H386V52.49H373.84v-4.3h29v4.3Z"/><path class="cls-3" d="M203.72,104.63a8.62,8.62,0,0,1-2.72.54c-2.8,0-3.3-1.51-3.3-4.56-1.9,2.55-6.41,4.56-11.36,4.56-5.87,0-10.06-2.26-10.06-6.53,0-4.76,5.3-5.94,10-5.94,3.19,0,8.38.25,11.36.57-.54-3.37-2.51-6-10-6a31.06,31.06,0,0,0-9,1.25l-.68-1.86a33.8,33.8,0,0,1,9.64-1.36c9,0,12.18,3.69,12.18,8.67V100c0,2.19.4,3.15,2,3.15a5.35,5.35,0,0,0,1.93-.43Zm-17.05-1.29c4.91,0,9.56-2.12,11-4.8V94.27h-11.5c-3.55,0-7.7.75-7.7,4.23C178.43,101.73,181.94,103.34,186.67,103.34Z"/><path class="cls-3" d="M233.31,104.63V95.1c0-4.48-2.68-7.85-9.53-7.85a36.53,36.53,0,0,0-11.43,2.29v15.09h-2.11V85.82l2-.29,0,2.22,0,0A31.77,31.77,0,0,1,224,85.28c8,0,11.47,4.19,11.47,9.82v9.53Z"/><path class="cls-3" d="M269.73,104.63a8.62,8.62,0,0,1-2.73.54c-2.79,0-3.29-1.51-3.29-4.56-1.9,2.55-6.42,4.56-11.36,4.56-5.88,0-10.07-2.26-10.07-6.53,0-4.76,5.3-5.94,10-5.94,3.19,0,8.39.25,11.36.57-.54-3.37-2.51-6-10-6a31.06,31.06,0,0,0-9,1.25l-.68-1.86a33.66,33.66,0,0,1,9.64-1.36c9,0,12.18,3.69,12.18,8.67V100c0,2.19.39,3.15,2,3.15a5.39,5.39,0,0,0,1.94-.43Zm-17.06-1.29c4.91,0,9.57-2.12,11-4.8V94.27H252.13c-3.54,0-7.7.75-7.7,4.23C244.43,101.73,247.94,103.34,252.67,103.34Z"/><path class="cls-3" d="M276.06,79.29l2.12-.28v25.62h-2.12Z"/><path class="cls-3" d="M285.87,85.82h2.51l6.37,9.85,4.81,7.31,11-17.16H313l-13,20.21c-2.76,4.29-5.45,5.48-8.64,5.48a22.18,22.18,0,0,1-4.62-.58v-1.68a22.87,22.87,0,0,0,4.37.57c2.8,0,4.91-1.18,6.88-4.19l.5-.75Z"/><path class="cls-3" d="M323.16,85.82h6.16v1.79h-6.16V98.5c0,3.26.89,4.87,3.29,4.87a14.37,14.37,0,0,0,2.87-.43v1.69a16.56,16.56,0,0,1-3.44.54c-2.94,0-4.84-1.58-4.84-6.67V87.61h-2.5V85.82H321V80.91l2.12-.29Z"/><path class="cls-3" d="M337,83.56v-4.3h2.11v4.3Zm0,21.07V85.82l2.11-.29v19.1Z"/><path class="cls-3" d="M371.5,103.66a30.67,30.67,0,0,1-10.14,1.51c-10.46,0-14.91-4.2-14.91-10s4.45-9.92,14.91-9.92a31.05,31.05,0,0,1,10.14,1.5l-.39,1.87a30.77,30.77,0,0,0-9.71-1.4c-9.21,0-12.8,3.33-12.8,8s3.59,8,12.8,8a30.87,30.87,0,0,0,9.71-1.39Z"/><path class="cls-3" d="M377.75,101.65a46.12,46.12,0,0,0,11.75,1.54c3.12,0,11.22-.35,11.22-4,0-3.33-5.23-3.33-10.65-3.4-6-.07-12.39-.29-12.39-5,0-5.23,7.81-5.48,12.07-5.48a68.67,68.67,0,0,1,11.47,1.07l-.32,2a63.78,63.78,0,0,0-11.47-1.07c-3.91,0-9.6.25-9.6,3.55,0,3.08,4.94,3.11,10.17,3.15,6.13.07,12.87.18,12.87,5.23,0,5.52-9.78,6-13.58,6a44.48,44.48,0,0,1-12-1.58Z"/><path class="cls-3" d="M177.27,9.29A17.67,17.67,0,0,0,161.7,0c-16.43,0-46.25,4.43-68.57,32.75a1.23,1.23,0,0,0-.06,1.42l7.86,12a1.21,1.21,0,0,0,2,0c18.49-26.32,44.64-30.3,58.77-30.3a1.82,1.82,0,0,1,1.52,2.83L123.09,80l-2.35,3.6a1.21,1.21,0,0,1-2,0l-52.38-80A7.93,7.93,0,0,0,61.14.15L61,.11,60.35,0l-.26,0h-.55c-3.16,0-5.46,1.83-7.16,4.61L2.89,80.19A17.71,17.71,0,0,0,17.7,107.6c16.44,0,46.25-4.43,68.57-32.76a1.2,1.2,0,0,0,.06-1.41l-7.86-12a1.21,1.21,0,0,0-2,0C58,87.74,31.83,91.72,17.7,91.72a1.76,1.76,0,0,1-1.61-1,1.78,1.78,0,0,1,.09-1.88L56.32,27.59,58.67,24a1.2,1.2,0,0,1,2,0l52.38,80a8.33,8.33,0,0,0,5.2,3.45l.2,0a3.93,3.93,0,0,0,.6.07,1.9,1.9,0,0,0,.25,0h.56c3.15,0,5.48-1.89,7.15-4.61l49.49-75.58A17.7,17.7,0,0,0,177.27,9.29Z"/><path class="cls-4" d="M161.7,0c-16.43,0-46.25,4.43-68.57,32.75a1.23,1.23,0,0,0-.06,1.42l7.86,12a1.21,1.21,0,0,0,2,0c18.49-26.32,44.64-30.3,58.77-30.3"/><path class="cls-5" d="M17.7,107.6c16.44,0,46.25-4.43,68.57-32.76a1.2,1.2,0,0,0,.06-1.41l-7.86-12a1.21,1.21,0,0,0-2,0C58,87.74,31.83,91.72,17.7,91.72"/></g></g></g></svg>